<?xml version="1.0" encoding="UTF-8" standalone="no"?>
<svg width="48px" height="48px" viewBox="0 0 48 48" version="1.1" xmlns="http://www.w3.org/2000/svg" xmlns:xlink="http://www.w3.org/1999/xlink">
    <!-- Generator: Sketch 3.8.3 (29802) - http://www.bohemiancoding.com/sketch -->
    <title>ico-piston</title>
    <desc>Created with Sketch.</desc>
    <defs>
        <path d="M17.5832867,14.7689372 C17.5832867,14.9863905 17.4032476,15.1628744 17.1814137,15.1628744 L9.98520641,15.1628744 C9.76337247,15.1628744 9.58333333,14.9863905 9.58333333,14.7689372 C9.58333333,14.5514839 9.76337247,14.375 9.98520641,14.375 L17.183557,14.375 C17.4032476,14.375 17.5832867,14.5493829 17.5832867,14.7689372 L17.5832867,14.7689372 Z M17.1814137,17.241287 L9.98520641,17.241287 C9.76337247,17.241287 9.58333333,17.4177709 9.58333333,17.6352242 C9.58333333,17.8526776 9.76337247,18.0291614 9.98520641,18.0291614 L17.183557,18.0291614 C17.4053909,18.0291614 17.5854301,17.8526776 17.5854301,17.6352242 C17.5854301,17.4177709 17.4032476,17.241287 17.1814137,17.241287 L17.1814137,17.241287 Z M17.1814137,20.1096751 L9.98520641,20.1096751 C9.76337247,20.1096751 9.58333333,20.2861589 9.58333333,20.5036123 C9.58333333,20.7210656 9.76337247,20.8975495 9.98520641,20.8975495 L17.183557,20.8975495 C17.4053909,20.8975495 17.5854301,20.7210656 17.5854301,20.5036123 C17.5854301,20.2861589 17.4032476,20.1096751 17.1814137,20.1096751 L17.1814137,20.1096751 Z M15.2599245,29.6156422 C15.4710418,29.9313172 15.5969621,30.3068707 15.5969621,30.7134139 C15.5969621,31.8169633 14.6801556,32.7156653 13.551696,32.7156653 C12.4259156,32.7156653 11.5112524,31.8169633 11.5112524,30.7134139 C11.5112524,30.2743052 11.6596776,29.874065 11.9024089,29.543683 L11.9024089,22.8572557 C11.9024089,22.6398024 12.082448,22.4633185 12.304282,22.4633185 C12.5261159,22.4633185 12.7061551,22.6398024 12.7061551,22.8572557 L12.7061551,28.897626 C12.9638897,28.7825964 13.2484158,28.7127382 13.551696,28.7127382 C13.8785528,28.7127382 14.181833,28.7946771 14.454035,28.9259895 L14.454035,22.8572557 C14.454035,22.6398024 14.6340742,22.4633185 14.8559081,22.4633185 C15.0777421,22.4633185 15.2577812,22.6398024 15.2577812,22.8572557 L15.2577812,29.6156422 L15.2599245,29.6156422 Z M14.7932159,30.7113129 C14.7932159,30.0421449 14.2364877,29.4964106 13.551696,29.4964106 C12.8695834,29.4964106 12.3149986,30.0400439 12.3149986,30.7113129 C12.3149986,31.3799556 12.8695834,31.9256899 13.551696,31.9256899 C14.2380952,31.9256899 14.7932159,31.3820566 14.7932159,30.7113129 L14.7932159,30.7113129 Z M28.816443,15.1628744 L36.0147936,15.1628744 C36.2366275,15.1628744 36.4166667,14.9863905 36.4166667,14.7689372 C36.4166667,14.5514839 36.2366275,14.375 36.0147936,14.375 L28.816443,14.375 C28.5946091,14.375 28.4145699,14.5514839 28.4145699,14.7689372 C28.4145699,14.9863905 28.5946091,15.1628744 28.816443,15.1628744 L28.816443,15.1628744 Z M36.0147936,17.241287 L28.816443,17.241287 C28.5946091,17.241287 28.4145699,17.4177709 28.4145699,17.6352242 C28.4145699,17.8526776 28.5946091,18.0291614 28.816443,18.0291614 L36.0147936,18.0291614 C36.2366275,18.0291614 36.4166667,17.8526776 36.4166667,17.6352242 C36.4166667,17.4177709 36.2387709,17.241287 36.0147936,17.241287 L36.0147936,17.241287 Z M36.0147936,20.1096751 L28.816443,20.1096751 C28.5946091,20.1096751 28.4145699,20.2861589 28.4145699,20.5036123 C28.4145699,20.7210656 28.5946091,20.8975495 28.816443,20.8975495 L36.0147936,20.8975495 C36.2366275,20.8975495 36.4166667,20.7210656 36.4166667,20.5036123 C36.4166667,20.2861589 36.2387709,20.1096751 36.0147936,20.1096751 L36.0147936,20.1096751 Z M34.0975911,30.1141041 C34.3215684,30.4324053 34.4598127,30.8116356 34.4598127,31.2281585 C34.4598127,32.3322331 33.5451496,33.2288342 32.4188333,33.2288342 C31.2930528,33.2288342 30.3783897,32.3322331 30.3783897,31.2281585 C30.3783897,30.8137366 30.5160982,30.4339811 30.7400755,30.1141041 L30.7400755,22.8551547 C30.7400755,22.6377014 30.9201146,22.4612175 31.1419486,22.4612175 C31.3637825,22.4612175 31.5438216,22.6377014 31.5438216,22.8551547 L31.5438216,29.4265524 C31.8095937,29.301543 32.1048365,29.225907 32.4188333,29.225907 C32.7328301,29.225907 33.0280729,29.301543 33.2938449,29.4265524 L33.2938449,22.8551547 C33.2938449,22.6377014 33.4738841,22.4612175 33.695718,22.4612175 C33.917552,22.4612175 34.0975911,22.6377014 34.0975911,22.8551547 L34.0975911,30.1141041 Z M33.6560665,31.2281585 C33.6560665,30.5595157 33.1014817,30.0137814 32.4188333,30.0137814 C31.7367207,30.0137814 31.1821359,30.5574148 31.1821359,31.2281585 C31.1821359,31.8973265 31.7367207,32.4409598 32.4188333,32.4409598 C33.1014817,32.4409598 33.6560665,31.8973265 33.6560665,31.2281585 L33.6560665,31.2281585 Z M26.6002469,17.241287 L19.4018964,17.241287 C19.1800624,17.241287 19.0000233,17.4177709 19.0000233,17.6352242 C19.0000233,17.8526776 19.1800624,18.0291614 19.4018964,18.0291614 L26.6002469,18.0291614 C26.8220809,18.0291614 27.00212,17.8526776 27.00212,17.6352242 C27.00212,17.4177709 26.8220809,17.241287 26.6002469,17.241287 L26.6002469,17.241287 Z M26.6002469,20.1096751 L19.4018964,20.1096751 C19.1800624,20.1096751 19.0000233,20.2861589 19.0000233,20.5036123 C19.0000233,20.7210656 19.1800624,20.8975495 19.4018964,20.8975495 L26.6002469,20.8975495 C26.8220809,20.8975495 27.00212,20.7210656 27.00212,20.5036123 C27.00212,20.2861589 26.8220809,20.1096751 26.6002469,20.1096751 L26.6002469,20.1096751 Z M26.6002469,22.9759621 L19.4018964,22.9759621 C19.1800624,22.9759621 19.0000233,23.152446 19.0000233,23.3698993 C19.0000233,23.5873526 19.1800624,23.7638365 19.4018964,23.7638365 L26.6002469,23.7638365 C26.8220809,23.7638365 27.00212,23.5873526 27.00212,23.3698993 C27.00212,23.152446 26.8220809,22.9759621 26.6002469,22.9759621 L26.6002469,22.9759621 Z M24.6766145,32.9719871 C24.9027351,33.2923894 25.0425869,33.6737206 25.0425869,34.0923445 C25.0425869,35.1964192 24.1263163,36.0972222 22.9978567,36.0972222 C21.8720762,36.0972222 20.9574131,35.1985202 20.9574131,34.0923445 C20.9574131,33.6779226 21.0951216,33.2986924 21.3190989,32.9782901 L21.3190989,25.7214417 C21.3190989,25.5039884 21.499138,25.3275045 21.720972,25.3275045 C21.9428059,25.3275045 22.122845,25.5039884 22.122845,25.7214417 L22.122845,32.2912637 C22.3886171,32.165729 22.6838598,32.0900931 22.9978567,32.0900931 C23.3118535,32.0900931 23.6049529,32.165729 23.870725,32.2891627 L23.870725,25.7214417 C23.870725,25.5039884 24.0507641,25.3275045 24.2725981,25.3275045 C24.494432,25.3275045 24.6744712,25.5039884 24.6744712,25.7214417 L24.6744712,32.9719871 L24.6766145,32.9719871 Z M24.2409841,34.0923445 C24.2409841,33.4237018 23.6842559,32.8779675 23,32.8779675 C22.3178874,32.8779675 21.7627668,33.4216008 21.7627668,34.0923445 C21.7627668,34.7636135 22.3178874,35.3093478 23,35.3093478 C23.6842559,35.3093478 24.2409841,34.7636135 24.2409841,34.0923445 L24.2409841,34.0923445 Z" id="path-1"></path>
        <filter x="-50%" y="-50%" width="200%" height="200%" filterUnits="objectBoundingBox" id="filter-2">
            <feOffset dx="0" dy="1" in="SourceAlpha" result="shadowOffsetOuter1"></feOffset>
            <feGaussianBlur stdDeviation="1.5" in="shadowOffsetOuter1" result="shadowBlurOuter1"></feGaussianBlur>
            <feColorMatrix values="0 0 0 0 0   0 0 0 0 0   0 0 0 0 0  0 0 0 0.5 0" type="matrix" in="shadowBlurOuter1"></feColorMatrix>
        </filter>
    </defs>
    <g id="Page-1" stroke="none" stroke-width="1" fill="none" fill-rule="evenodd">
        <g id="ico-piston">
            <g id="Group" transform="translate(1.000000, 1.000000)">
                <circle id="Oval-1" stroke="#F1C143" stroke-width="0.643200042" fill="#370E50" cx="23" cy="23" r="23"></circle>
                <g id="Page-1">
                    <use fill="black" fill-opacity="1" filter="url(#filter-2)" xlink:href="#path-1"></use>
                    <use fill="#F1C143" fill-rule="evenodd" xlink:href="#path-1"></use>
                </g>
            </g>
        </g>
    </g>
</svg>