<?xml version="1.0" encoding="UTF-8" standalone="no"?>
<svg width="88px" height="29px" viewBox="0 0 88 29" version="1.1" xmlns="http://www.w3.org/2000/svg" xmlns:xlink="http://www.w3.org/1999/xlink">
    <!-- Generator: Sketch 3.6.1 (26313) - http://www.bohemiancoding.com/sketch -->
    <title>Group</title>
    <desc>Created with Sketch.</desc>
    <defs></defs>
    <g id="STEEMIT" stroke="none" stroke-width="1" fill="none" fill-rule="evenodd">
        <g id="STEEM-4.0" transform="translate(-211.000000, -123.000000)">
            <g id="Group" transform="translate(211.000000, 123.000000)">
                <g id="Page-1">
                    <path d="M4.22924444,3.23195745 C3.94488889,3.09004255 0.337866667,6.07148936 0.337866667,8.265 C0.332888889,11.2631064 4.54533333,18.0552766 5.25466667,20.6825532 C5.86506667,22.9359149 4.21928889,25.6403191 4.67164444,25.7631064 C5.0848,26.0284255 9.01475556,22.0486383 9.16782222,20.3518298 C9.36506667,17.6498936 4.57893333,9.77114894 4.19751111,7.73682979 C3.75511111,5.36253191 4.54782222,3.28502128 4.22924444,3.23195745 L4.22924444,3.23195745 Z" id="Fill-1" fill="#1A5099"></path>
                    <path d="M13.2321778,0.130191489 C12.8700444,-0.0505957447 8.26871111,3.74778723 8.26871111,6.54844681 C8.26373333,10.3715106 13.6353778,19.0338723 14.5394667,22.3812128 C15.3172444,25.2546809 13.2197333,28.7038298 13.7934222,28.8580851 C14.3235556,29.1949787 19.3324444,24.1242979 19.5296889,21.9573191 C19.7823111,18.5131064 13.6764444,8.46738298 13.1904889,5.86910638 C12.6267556,2.84878723 13.6353778,0.197446809 13.2321778,0.130191489 L13.2321778,0.130191489 Z" id="Fill-2" fill="#4BA2F2"></path>
                    <path d="M22.5238222,3.23195745 C22.2419556,3.09004255 18.6324444,6.07148936 18.6324444,8.265 C18.6280889,11.2631064 22.8399111,18.0552766 23.5498667,20.6825532 C24.1596444,22.9359149 22.5144889,25.6403191 22.9662222,25.7631064 C23.3818667,26.0284255 27.3124444,22.0486383 27.4630222,20.3518298 C27.6596444,17.6498936 22.8741333,9.77114894 22.4920889,7.73682979 C22.0503111,5.36253191 22.8424,3.28502128 22.5238222,3.23195745 L22.5238222,3.23195745 Z" id="Fill-3" fill="#1A5099"></path>
                </g>
                <path d="M46.7465,16.465 C46.7465,13.228 41.7155,14.229 41.7155,12.63 C41.7155,11.993 42.2745,11.564 43.1585,11.564 C43.8605,11.564 44.5755,11.746 45.1865,12.149 C45.3165,12.24 45.4595,12.279 45.6025,12.279 C45.9795,12.279 46.3565,11.967 46.3565,11.564 C46.3565,11.421 46.3045,11.265 46.2005,11.148 C45.6285,10.524 44.3285,10.199 43.2885,10.199 C41.3775,10.199 40.1295,11.304 40.1295,12.747 C40.1295,15.945 45.1735,14.827 45.1735,16.621 C45.1735,17.18 44.6795,17.791 43.4575,17.791 C42.5475,17.791 41.7805,17.466 41.1825,17.011 C41.0655,16.92 40.9095,16.881 40.7665,16.881 C40.3765,16.881 40.0255,17.219 40.0255,17.622 C40.0255,17.778 40.0775,17.921 40.1815,18.051 C40.7665,18.74 42.1185,19.156 43.3925,19.156 C45.7325,19.156 46.7465,17.921 46.7465,16.465 L46.7465,16.465 Z M56.3255,11.018 C56.3255,10.628 56.0135,10.329 55.6495,10.329 L50.0595,10.329 C49.6825,10.329 49.3835,10.628 49.3835,10.992 C49.3835,11.395 49.6825,11.694 50.0595,11.694 L52.0745,11.694 L52.0745,18.311 C52.0745,18.727 52.4125,19.078 52.8415,19.078 C53.2835,19.078 53.6345,18.727 53.6345,18.311 L53.6345,11.694 L55.6495,11.694 C56.0135,11.694 56.3255,11.395 56.3255,11.018 L56.3255,11.018 Z M65.5535,18.298 C65.5535,17.934 65.2545,17.635 64.8905,17.635 L61.0685,17.635 L61.0685,15.269 L64.7995,15.269 C65.1635,15.269 65.4625,14.97 65.4625,14.593 C65.4625,14.203 65.1635,13.904 64.7995,13.904 L61.0685,13.904 L61.0685,11.694 L64.8905,11.694 C65.2545,11.694 65.5535,11.395 65.5535,11.018 C65.5535,10.628 65.2545,10.329 64.8905,10.329 L60.4575,10.329 C59.9375,10.329 59.5215,10.758 59.5215,11.265 L59.5215,18.064 C59.5215,18.571 59.9375,19 60.4575,19 L64.8905,19 C65.2545,19 65.5535,18.701 65.5535,18.298 L65.5535,18.298 Z M75.0675,18.298 C75.0675,17.934 74.7685,17.635 74.4045,17.635 L70.5825,17.635 L70.5825,15.269 L74.3135,15.269 C74.6775,15.269 74.9765,14.97 74.9765,14.593 C74.9765,14.203 74.6775,13.904 74.3135,13.904 L70.5825,13.904 L70.5825,11.694 L74.4045,11.694 C74.7685,11.694 75.0675,11.395 75.0675,11.018 C75.0675,10.628 74.7685,10.329 74.4045,10.329 L69.9715,10.329 C69.4515,10.329 69.0355,10.758 69.0355,11.265 L69.0355,18.064 C69.0355,18.571 69.4515,19 69.9715,19 L74.4045,19 C74.7685,19 75.0675,18.701 75.0675,18.298 L75.0675,18.298 Z M87.5975,18.311 L87.5975,11.278 C87.5975,10.576 86.9215,10.225 86.2195,10.303 C85.7255,10.303 85.2965,10.589 85.1145,11.031 L83.0605,16.062 L81.0195,11.031 C80.7725,10.446 80.1875,10.251 79.5245,10.303 C78.9915,10.303 78.5495,10.745 78.5495,11.278 L78.5495,18.311 C78.5495,18.727 78.8875,19.078 79.3035,19.078 C79.7455,19.078 80.0965,18.727 80.0965,18.311 L80.0965,12.513 L82.6445,18.805 C82.7095,18.961 82.8785,19.078 83.0475,19.078 C83.2555,19.078 83.4115,18.961 83.4765,18.805 L86.0375,12.513 L86.0375,18.311 C86.0375,18.727 86.3755,19.078 86.8045,19.078 C87.2465,19.078 87.5975,18.727 87.5975,18.311 L87.5975,18.311 Z" id="steem" fill="#1A5099"></path>
            </g>
        </g>
    </g>
</svg>